<svg fill="#FFFFFF" xmlns="http://www.w3.org/2000/svg" xmlns:xlink="http://www.w3.org/1999/xlink" version="1.1" x="0px" y="0px" viewBox="0 0 100 100" style="enable-background:new 0 0 100 100;" xml:space="preserve"><style type="text/css">
	.st0{fill:none;stroke:#FFFFFF;stroke-width:2;stroke-linecap:round;stroke-linejoin:round;stroke-miterlimit:10;}
</style><path d="M12.6,88.3h19.2c1.7,0,3.1-1.4,3.1-3.1V12.9c0-1.7-1.4-3.1-3.1-3.1H12.6c-1.7,0-3.1,1.4-3.1,3.1v72.3  C9.5,86.9,10.9,88.3,12.6,88.3z M33,70.8H11.5V27.4H33V70.8z M11.5,72.8H33v4.4H11.5V72.8z M33,25.4H11.5V21H33V25.4z M31.9,86.3  H12.6c-0.6,0-1.1-0.5-1.1-1.1v-6H33v6C33,85.8,32.5,86.3,31.9,86.3z M12.6,11.8h19.2c0.6,0,1.1,0.5,1.1,1.1V19H11.5v-6.1  C11.5,12.3,12,11.8,12.6,11.8z"></path><path d="M40.4,88.3h19.2c1.7,0,3.1-1.4,3.1-3.1V12.9c0-1.7-1.4-3.1-3.1-3.1H40.4c-1.7,0-3.1,1.4-3.1,3.1v72.3  C37.3,86.9,38.7,88.3,40.4,88.3z M60.7,77.1H39.3v-4.4h21.5V77.1z M59.6,86.3H40.4c-0.6,0-1.1-0.5-1.1-1.1v-6h21.5v6  C60.7,85.8,60.2,86.3,59.6,86.3z M40.4,11.8h19.2c0.6,0,1.1,0.5,1.1,1.1v57.9H39.3V12.9C39.3,12.3,39.8,11.8,40.4,11.8z"></path><path d="M87.4,9.8H68.1c-1.7,0-3.1,1.4-3.1,3.1v72.3c0,1.7,1.4,3.1,3.1,3.1h19.2c1.7,0,3.1-1.4,3.1-3.1V12.9  C90.5,11.2,89.1,9.8,87.4,9.8z M67,21h21.5v4.4H67V21z M68.1,11.8h19.2c0.6,0,1.1,0.5,1.1,1.1V19H67v-6.1  C67,12.3,67.5,11.8,68.1,11.8z M87.4,86.3H68.1c-0.6,0-1.1-0.5-1.1-1.1V27.4h21.5v57.8C88.5,85.8,88,86.3,87.4,86.3z"></path><path d="M22.2,61c4.6,0,8.3-5.4,8.3-12s-3.7-12-8.3-12s-8.3,5.4-8.3,12S17.7,61,22.2,61z M22.2,39.1c3.5,0,6.3,4.5,6.3,10  s-2.8,10-6.3,10s-6.3-4.5-6.3-10S18.8,39.1,22.2,39.1z"></path><path d="M50.4,44.9c4.6,0,8.3-5.4,8.3-12S55,21,50.4,21s-8.3,5.4-8.3,12S45.8,44.9,50.4,44.9z M50.4,23c3.5,0,6.3,4.5,6.3,10  s-2.8,10-6.3,10s-6.3-4.5-6.3-10S46.9,23,50.4,23z"></path><path d="M77.8,74.8c3.3,0,5.9-2.7,5.9-5.9c0-3.3-2.7-5.9-5.9-5.9s-5.9,2.7-5.9,5.9C71.8,72.1,74.5,74.8,77.8,74.8z M77.8,64.9  c2.2,0,3.9,1.8,3.9,3.9s-1.8,3.9-3.9,3.9s-3.9-1.8-3.9-3.9S75.6,64.9,77.8,64.9z"></path><path d="M83.4,77.1H72.1c-0.6,0-1,0.4-1,1s0.4,1,1,1h11.3c0.6,0,1-0.4,1-1S84,77.1,83.4,77.1z"></path></svg>